name C:\Users\r0593348\3dpredictsim\Results\MidTarsalJoint\Fal_s1_bCst_PF_Natali2010_ls150_MT_k1000_d010_MTP_T5_ig24.mot
datacolumns 128
datarows 4
range 1.11487820 1.14832455
endheader
time	pelvis_tilt	pelvis_list	pelvis_rotation	pelvis_tx	pelvis_ty	pelvis_tz	hip_flexion_l	hip_adduction_l	hip_rotation_l	hip_flexion_r	hip_adduction_r	hip_rotation_r	knee_angle_l	knee_angle_r	ankle_angle_l	ankle_angle_r	subtalar_angle_l	subtalar_angle_r	mtj_angle_l	mtj_angle_r	mtp_angle_l	mtp_angle_r	lumbar_extension	lumbar_bending	lumbar_rotation	arm_flex_l	arm_add_l	arm_rot_l	arm_flex_r	arm_add_r	arm_rot_r	elbow_flex_l	elbow_flex_r	pro_sup_l	pro_sup_r	glut_med1_l/activation	glut_med2_l/activation	glut_med3_l/activation	glut_min1_l/activation	glut_min2_l/activation	glut_min3_l/activation	semimem_l/activation	semiten_l/activation	bifemlh_l/activation	bifemsh_l/activation	sar_l/activation	add_long_l/activation	add_brev_l/activation	add_mag1_l/activation	add_mag2_l/activation	add_mag3_l/activation	tfl_l/activation	pect_l/activation	grac_l/activation	glut_max1_l/activation	glut_max2_l/activation	glut_max3_l/activation	iliacus_l/activation	psoas_l/activation	quad_fem_l/activation	gem_l/activation	peri_l/activation	rect_fem_l/activation	vas_med_l/activation	vas_int_l/activation	vas_lat_l/activation	med_gas_l/activation	lat_gas_l/activation	soleus_l/activation	tib_post_l/activation	flex_dig_l/activation	flex_hal_l/activation	tib_ant_l/activation	per_brev_l/activation	per_long_l/activation	per_tert_l/activation	ext_dig_l/activation	ext_hal_l/activation	ercspn_l/activation	intobl_l/activation	extobl_l/activation	glut_med1_r/activation	glut_med2_r/activation	glut_med3_r/activation	glut_min1_r/activation	glut_min2_r/activation	glut_min3_r/activation	semimem_r/activation	semiten_r/activation	bifemlh_r/activation	bifemsh_r/activation	sar_r/activation	add_long_r/activation	add_brev_r/activation	add_mag1_r/activation	add_mag2_r/activation	add_mag3_r/activation	tfl_r/activation	pect_r/activation	grac_r/activation	glut_max1_r/activation	glut_max2_r/activation	glut_max3_r/activation	iliacus_r/activation	psoas_r/activation	quad_fem_r/activation	gem_r/activation	peri_r/activation	rect_fem_r/activation	vas_med_r/activation	vas_int_r/activation	vas_lat_r/activation	med_gas_r/activation	lat_gas_r/activation	soleus_r/activation	tib_post_r/activation	flex_dig_r/activation	flex_hal_r/activation	tib_ant_r/activation	per_brev_r/activation	per_long_r/activation	per_tert_r/activation	ext_dig_r/activation	ext_hal_r/activation	ercspn_r/activation	intobl_r/activation	extobl_r/activation	
          1.11487820	         -2.92867944	         -1.98491983	          4.71656651	          1.39359775	          0.92031984	         -0.00204539	        -17.41210908	         -0.72995862	          6.44065960	         29.91412519	          3.05010314	         -2.59392796	         -4.75102249	        -12.37197224	          0.24986987	          6.36734534	          6.94840932	         -3.95121237	          1.87835206	         -0.01261566	         16.48610332	         -0.88989138	         -2.22689244	          0.08975224	         -1.89318164	          4.78854934	        -13.44971089	         14.84744358	         -4.51839386	        -13.46363432	          5.55271010	         33.31728549	         18.26865190	         86.51662706	         86.51662706	          0.31059493	          0.11730190	          0.08806017	          0.35375654	          0.23096735	          0.13227329	          0.05000244	          0.05000081	          0.05000070	          0.07226609	          0.12116395	          0.05000039	          0.05000032	          0.05000054	          0.05000151	          0.05000128	          0.36434518	          0.05000177	          0.05000162	          0.05008055	          0.05001328	          0.05000280	          0.45754870	          0.67566140	          0.05000128	          0.05003333	          0.06819775	          0.26978574	          0.05000146	          0.05000151	          0.05000151	          0.34606078	          0.47333272	          0.32629666	          0.29580711	          0.30575142	          0.37691973	          0.05000020	          0.05006437	          0.12001317	          0.05000094	          0.05000027	          0.05000094	          0.05000005	          0.05000006	          0.05000007	          0.07030576	          0.05000257	          0.05928605	          0.05000185	          0.05000216	          0.05000995	          0.11944147	          0.07030110	          0.23821418	          0.05027516	          0.05000674	          0.13535412	          0.16660697	          0.14820130	          0.13146571	          0.10455045	          0.05724882	          0.05007170	          0.10406768	          0.05929014	          0.07282881	          0.09574086	          0.05000058	          0.05000132	          0.17973490	          0.05000143	          0.05000667	          0.05000036	          0.05000182	          0.05000209	          0.05000129	          0.05000031	          0.05000073	          0.05000010	          0.05928700	          0.05001075	          0.05480054	          0.43289436	          0.25157412	          0.19748179	          0.08821070	          0.41157253	          0.14408764	          0.07030811	          0.13368662	          0.12312934	
          1.12602698	         -2.93017336	         -2.07585392	          5.02934784	          1.40995689	          0.91926629	         -0.00185844	        -17.40801930	         -1.02556046	          6.23466424	         29.39032413	          3.39197592	         -2.40056323	         -6.43656734	        -11.97013537	         -0.26233094	          6.01689447	          7.85511237	         -4.34160594	          1.61071181	         -0.00738770	         17.72048422	         -0.88405296	         -2.05850736	          0.28580317	         -1.96288971	          4.60867048	        -13.45329388	         15.25357474	         -5.30938056	        -13.46176132	          5.30013831	         34.47932908	         17.78817982	         86.51662706	         86.51662706	          0.26193025	          0.09892116	          0.07426152	          0.29832465	          0.19477577	          0.11154666	          0.05000352	          0.05000103	          0.05000069	          0.06094236	          0.10217867	          0.09647133	          0.05004936	          0.05000764	          0.05001203	          0.05000339	          0.30725425	          0.08087341	          0.05001580	          0.05002185	          0.05001550	          0.05001357	          0.40647712	          0.65024801	          0.05001532	          0.05000339	          0.05751160	          0.22751199	          0.05015314	          0.05010413	          0.05004945	          0.29183425	          0.39916408	          0.31192626	          0.29021189	          0.29445537	          0.38431335	          0.05000018	          0.05483648	          0.11863215	          0.05000097	          0.05000027	          0.05000095	          0.05000012	          0.05000041	          0.05000036	          0.05928980	          0.05928992	          0.05000080	          0.05929073	          0.05929062	          0.05003686	          0.11272849	          0.05928579	          0.22514302	          0.05000101	          0.05000140	          0.13892506	          0.30509870	          0.13061853	          0.14349427	          0.10830043	          0.05000057	          0.07785037	          0.08777179	          0.05000170	          0.11133184	          0.15663923	          0.05521149	          0.05000100	          0.16752576	          0.25466284	          0.12967690	          0.05584268	          0.13824564	          0.13581087	          0.12264141	          0.05000139	          0.05000167	          0.05173382	          0.05000011	          0.05000160	          0.05000080	          0.54879488	          0.26490197	          0.16653762	          0.24442634	          0.47630354	          0.22431487	          0.05929109	          0.11273841	          0.10383541	
          1.13717577	         -2.92712482	         -2.16518877	          5.31776586	          1.42667736	          0.91827126	         -0.00166178	        -17.30922099	         -1.31955163	          6.02536274	         28.77598336	          3.71567004	         -2.16063715	         -8.29831104	        -12.17723762	         -0.90466141	          5.40239448	          8.75241240	         -4.71269058	          1.28050121	         -0.01049115	         18.95944690	         -0.87343507	         -1.86317215	          0.48959744	         -2.02557527	          4.34807957	        -13.45815059	         15.59740096	         -6.14848534	        -13.46024983	          5.07481985	         35.61407799	         17.38041351	         86.51662706	         86.51662706	          0.22088685	          0.08342061	          0.06262508	          0.25157881	          0.16425524	          0.09406782	          0.05001041	          0.05000210	          0.05000260	          0.05139316	          0.08616828	          0.18426528	          0.05002447	          0.05932125	          0.05890927	          0.05929347	          0.25910896	          0.08345407	          0.05001384	          0.05000828	          0.05000548	          0.05000664	          0.34278377	          0.60271013	          0.05000125	          0.05928383	          0.05929081	          0.19186289	          0.15025190	          0.15136298	          0.14655933	          0.24610480	          0.33661649	          0.26441598	          0.26115583	          0.24831804	          0.32410252	          0.05000013	          0.05000039	          0.13005719	          0.05000039	          0.05000013	          0.05000057	          0.05604413	          0.06119958	          0.05502997	          0.05000005	          0.05000020	          0.11156371	          0.05000019	          0.05000023	          0.05000034	          0.09506466	          0.05000085	          0.18986403	          0.05000058	          0.05009856	          0.11715669	          0.25729242	          0.30878888	          0.21101382	          0.12431656	          0.05000219	          0.06566099	          0.12093395	          0.05729230	          0.11229540	          0.13209591	          0.05000032	          0.05930111	          0.40569505	          0.21475814	          0.10935709	          0.05929730	          0.13798363	          0.14187148	          0.12026914	          0.05000129	          0.05940054	          0.05000010	          0.05929322	          0.05003350	          0.05929335	          0.47590472	          0.29224174	          0.20184494	          0.20612586	          0.43476239	          0.18916568	          0.05000039	          0.09507269	          0.08756476	
          1.14832455	         -2.92040693	         -2.25771001	          5.57810325	          1.44366938	          0.91734173	         -0.00147803	        -17.13828243	         -1.61349818	          5.80500155	         28.04744031	          3.96295934	         -1.89925673	        -10.27390516	        -12.70298550	         -1.71026169	          4.89479885	          9.60806555	         -5.10623946	          0.90092785	         -0.06930800	         20.12993030	         -0.92271147	         -1.64909048	          0.70467641	         -2.07705789	          4.02062974	        -13.45967506	         15.88260921	         -7.01267302	        -13.46466823	          4.89923949	         36.71591757	         17.02460385	         86.51662706	         86.51662706	          0.31060171	          0.07034896	          0.05281209	          0.31006748	          0.13851728	          0.07932787	          0.05000470	          0.05000078	          0.05000064	          0.05000059	          0.07266686	          0.15539207	          0.05003532	          0.05002693	          0.05000587	          0.05000454	          0.23753029	          0.07038658	          0.05000383	          0.05001120	          0.05000671	          0.05000464	          0.28907114	          0.57082139	          0.05000107	          0.05000230	          0.05000089	          0.16179881	          0.12670947	          0.12764639	          0.12359524	          0.20754099	          0.28386983	          0.22298288	          0.22023397	          0.20940812	          0.27331744	          0.05000008	          0.09607535	          0.15262805	          0.05000042	          0.05000011	          0.05000045	          0.05000142	          0.05160983	          0.05000018	          0.22973357	          0.22936034	          0.29852479	          0.34123461	          0.21797264	          0.21160725	          0.08956711	          0.05000890	          0.16011480	          0.06254660	          0.05000472	          0.09879881	          0.21697591	          0.26040302	          0.17794920	          0.12212250	          0.05000165	          0.05929232	          0.10198862	          0.05000207	          0.13975335	          0.11139838	          0.05927522	          0.05000940	          0.34212418	          0.18110669	          0.21362303	          0.05000572	          0.11636239	          0.11964106	          0.10142366	          0.05000537	          0.05009341	          0.05374629	          0.05000237	          0.05000153	          0.05000358	          0.55317738	          0.31606894	          0.17021713	          0.35061506	          0.50964301	          0.15952569	          0.06099099	          0.11723296	          0.07384367	
